# xmcd
#
# Track frame offsets:
#	150
#	18408
#	33577
#	46954
#	57590
#	85092
#	95995
#	105737
#	118188
#	139761
#	156750
#	173683
#	190926
#	204645
#	231635
#	257749
#
# Disc length: 3670 seconds
#
# Revision: 1
# Processed by: cddbd v1.5.2PL0 Copyright (c) Steve Scherf et al.
# Submitted via: audiograbber 1.83.01
#
DISCID=e80e5410
DTITLE=Chuck Bernstein - Delta Berimbau Blues
DYEAR=2009
DGENRE=Blues
TTITLE0=Delta Berimbau Blues
TTITLE1=All Your Desires
TTITLE2=Dawn in the Delta
TTITLE3=Kindred Spirits
TTITLE4=Drop D
TTITLE5=Viola Foot Stompin' Blues
TTITLE6=Delta Spirit Dance
TTITLE7=One Grain of Sand
TTITLE8=Plunger in the Funk
TTITLE9=Blues Para Guinga
TTITLE10=Darling Cory
TTITLE11=Bahia Trance Blues
TTITLE12=Free to Grind
TTITLE13=Contenda
TTITLE14=Kelly Blues
TTITLE15=Flight of the Golden Dragon
EXTD=
EXTT0=
EXTT1=
EXTT2=
EXTT3=
EXTT4=
EXTT5=
EXTT6=
EXTT7=
EXTT8=
EXTT9=
EXTT10=
EXTT11=
EXTT12=
EXTT13=
EXTT14=
EXTT15=
PLAYORDER=
